HIERARCHY
ROOT hip
{
  OFFSET 0.0 0.0 0.0
  CHANNELS 6 Xposition Yposition Zposition Zrotation Yrotation Xrotation
  JOINT abdomen
  {
    OFFSET 0.0 20.6881 -0.73152
    CHANNELS 3 Zrotation Xrotation Yrotation
    JOINT chest
    {
      OFFSET 0.0 11.7043 -0.48768
      CHANNELS 3 Zrotation Xrotation Yrotation
      JOINT neck
      {
        OFFSET 0.0 22.1894 -2.19456
        CHANNELS 3 Zrotation Xrotation Yrotation
        JOINT head
        {
          OFFSET -0.24384 7.07133 1.2192
          CHANNELS 3 Zrotation Xrotation Yrotation
          JOINT leftEye
          {
            OFFSET 4.14528 8.04674 8.04672
            CHANNELS 3 Zrotation Xrotation Yrotation
            End Site
            {
              OFFSET 1.0 0.0 0.0
            }
          }
          JOINT rightEye
          {
            OFFSET -3.6576 8.04674 8.04672
            CHANNELS 3 Zrotation Xrotation Yrotation
            End Site
            {
              OFFSET 1.0 0.0 0.0
            }
          }
        }
      }
      JOINT rCollar
      {
        OFFSET -2.68224 19.2634 -4.8768
        CHANNELS 3 Zrotation Xrotation Yrotation
        JOINT rShldr
        {
          OFFSET -8.77824 -1.95073 1.46304
          CHANNELS 3 Zrotation Xrotation Yrotation
          JOINT rForeArm
          {
            OFFSET -28.1742 -1.7115 0.48768
            CHANNELS 3 Zrotation Xrotation Yrotation
            JOINT rHand
            {
              OFFSET -22.5879 0.773209 7.07136
              CHANNELS 3 Zrotation Xrotation Yrotation
              JOINT rThumb1
              {
                OFFSET -1.2192 -0.487915 3.41376
                CHANNELS 3 Zrotation Xrotation Yrotation
                JOINT rThumb2
                {
                  OFFSET -3.37035 -0.52449 3.41376
                  CHANNELS 3 Zrotation Xrotation Yrotation
                  End Site
                  {
                    OFFSET -1.78271 -1.18214 1.43049
                  }
                }
              }
              JOINT rIndex1
              {
                OFFSET -7.75947 0.938293 5.60832
                CHANNELS 3 Zrotation Xrotation Yrotation
                JOINT rIndex2
                {
                  OFFSET -2.54057 -0.884171 1.56538
                  CHANNELS 3 Zrotation Xrotation Yrotation
                  End Site
                  {
                    OFFSET -1.62519 -0.234802 1.16502
                  }
                }
              }
              JOINT rMid1
              {
                OFFSET -8.24714 1.18213 3.41376
                CHANNELS 3 Zrotation Xrotation Yrotation
                JOINT rMid2
                {
                  OFFSET -3.10165 -0.590103 1.0647
                  CHANNELS 3 Zrotation Xrotation Yrotation
                  End Site
                  {
                    OFFSET -2.48547 -0.328903 0.83742
                  }
                }
              }
              JOINT rRing1
              {
                OFFSET -8.82822 0.546677 1.51678
                CHANNELS 3 Zrotation Xrotation Yrotation
                JOINT rRing2
                {
                  OFFSET -2.60934 -0.819778 -0.0198488
                  CHANNELS 3 Zrotation Xrotation Yrotation
                  End Site
                  {
                    OFFSET -2.33842 -0.294052 0.168128
                  }
                }
              }
              JOINT rPinky1
              {
                OFFSET -8.27202 -0.0477905 -0.4584
                CHANNELS 3 Zrotation Xrotation Yrotation
                JOINT rPinky2
                {
                  OFFSET -1.82734 -0.647385 -0.700984
                  CHANNELS 3 Zrotation Xrotation Yrotation
                  End Site
                  {
                    OFFSET -1.69225 -0.51767 -0.607171
                  }
                }
              }
            }
          }
        }
      }
      JOINT lCollar
      {
        OFFSET 2.68224 19.2634 -4.8768
        CHANNELS 3 Zrotation Xrotation Yrotation
        JOINT lShldr
        {
          OFFSET 8.77824 -1.95073 1.46304
          CHANNELS 3 Zrotation Xrotation Yrotation
          JOINT lForeArm
          {
            OFFSET 28.1742 -1.7115 0.48768
            CHANNELS 3 Zrotation Xrotation Yrotation
            JOINT lHand
            {
              OFFSET 22.5879 0.773209 7.07136
              CHANNELS 3 Zrotation Xrotation Yrotation
              JOINT lThumb1
              {
                OFFSET 1.2192 -0.487915 3.41376
                CHANNELS 3 Zrotation Xrotation Yrotation
                JOINT lThumb2
                {
                  OFFSET 3.37035 -0.52449 3.41376
                  CHANNELS 3 Zrotation Xrotation Yrotation
                  End Site
                  {
                    OFFSET 1.78271 -1.18214 1.43049
                  }
                }
              }
              JOINT lIndex1
              {
                OFFSET 7.75947 0.938293 5.60832
                CHANNELS 3 Zrotation Xrotation Yrotation
                JOINT lIndex2
                {
                  OFFSET 2.54057 -0.884171 1.56538
                  CHANNELS 3 Zrotation Xrotation Yrotation
                  End Site
                  {
                    OFFSET 1.62519 -0.234802 1.16502
                  }
                }
              }
              JOINT lMid1
              {
                OFFSET 8.24714 1.18213 3.41376
                CHANNELS 3 Zrotation Xrotation Yrotation
                JOINT lMid2
                {
                  OFFSET 3.10165 -0.590103 1.0647
                  CHANNELS 3 Zrotation Xrotation Yrotation
                  End Site
                  {
                    OFFSET 2.48547 -0.328903 0.83742
                  }
                }
              }
              JOINT lRing1
              {
                OFFSET 8.82822 0.546677 1.51678
                CHANNELS 3 Zrotation Xrotation Yrotation
                JOINT lRing2
                {
                  OFFSET 2.60934 -0.819778 -0.0198488
                  CHANNELS 3 Zrotation Xrotation Yrotation
                  End Site
                  {
                    OFFSET 2.33842 -0.294052 0.168128
                  }
                }
              }
              JOINT lPinky1
              {
                OFFSET 8.27202 -0.0477905 -0.4584
                CHANNELS 3 Zrotation Xrotation Yrotation
                JOINT lPinky2
                {
                  OFFSET 1.82734 -0.647385 -0.700984
                  CHANNELS 3 Zrotation Xrotation Yrotation
                  End Site
                  {
                    OFFSET 1.69225 -0.51767 -0.607171
                  }
                }
              }
            }
          }
        }
      }
    }
  }
  JOINT rButtock
  {
    OFFSET -8.77824 4.35084 1.2192
    CHANNELS 3 Zrotation Xrotation Yrotation
    JOINT rThigh
    {
      OFFSET 0.0 -1.70687 -2.19456
      CHANNELS 3 Zrotation Xrotation Yrotation
      JOINT rShin
      {
        OFFSET 0.0 -36.8199 0.73152
        CHANNELS 3 Zrotation Xrotation Yrotation
        JOINT rFoot
        {
          OFFSET 0.73152 -45.1104 -5.12064
          CHANNELS 3 Zrotation Xrotation Yrotation
          End Site
          {
            OFFSET -1.1221 -3.69964 12.103
          }
        }
      }
    }
  }
  JOINT lButtock
  {
    OFFSET 8.77824 4.35084 1.2192
    CHANNELS 3 Zrotation Xrotation Yrotation
    JOINT lThigh
    {
      OFFSET 0.0 -1.70687 -2.19456
      CHANNELS 3 Zrotation Xrotation Yrotation
      JOINT lShin
      {
        OFFSET 0.0 -36.8199 0.73152
        CHANNELS 3 Zrotation Xrotation Yrotation
        JOINT lFoot
        {
          OFFSET -0.73152 -45.1104 -5.12064
          CHANNELS 3 Zrotation Xrotation Yrotation
          End Site
          {
            OFFSET 1.1221 -3.69964 12.103
          }
        }
      }
    }
  }
}
MOTION
Frames: 4
Frame Time: 0.00833333
0.0 88.7927 0.0 -341.318 -85.5757 359.081 2.559 27.5592 -3.99581 -2.99764 -5.42192 -1.24117 3.34092 22.4551 -0.276786 0.193895 -61.7191 -1.06366 -0.0 0.0 0.0 -0.0 0.0 0.0 1.12934e-13 -8.4535e-12 -2.10712e-13 81.5783 28.1091 3.43195 -15.685 -8.39786 29.0104 -0.00109953 -0.946794 -0.133076 -6.92779e-10 2.01399e-09 1.02998e-09 -1.18879e-09 3.48422e-09 1.78074e-09 -6.92774e-10 2.01399e-09 1.02997e-09 7.73091 5.47488 0.417314 -6.92778e-10 2.01399e-09 1.02998e-09 2.90554 0.965183 0.102902 -6.92769e-10 2.01399e-09 1.02998e-09 10.2786 0.731801 0.0259123 -6.9278e-10 2.014e-09 1.02998e-09 2.22167 -0.733487 -0.20892 1.12892e-13 -8.4535e-12 -2.10911e-13 -80.8742 19.703 5.7833 14.0044 -6.958 -25.563 0.632989 -22.0015 3.25538 -2.66268e-09 -1.20908e-09 -3.18066e-09 -4.55307e-09 -2.1228e-09 -5.54009e-09 -2.66268e-09 -1.20908e-09 -3.18064e-09 -7.73091 5.47488 -0.417314 -2.66268e-09 -1.20908e-09 -3.18065e-09 -2.90554 0.965183 -0.102902 -2.66268e-09 -1.20908e-09 -3.18065e-09 -10.2786 0.731801 -0.0259123 -2.66268e-09 -1.20908e-09 -3.18066e-09 -2.22167 -0.733487 0.20892 -2.03217e-16 0.0 -3.88251e-19 -0.142257 -39.1707 -2.29765 -0.268206 33.5451 0.341613 0.262842 12.0662 -6.30462 2.03217e-16 0.0 3.88251e-19 7.69847 -40.3276 13.2381 0.610191 50.9011 -1.0762 2.52942 20.4769 -7.02485
-0.5560000000000116 88.7593 -0.10869999999999891 -342.85 -85.59 360.491 2.58866 27.6724 -3.88862 -3.01655 -5.40457 -1.21061 3.38328 22.4529 -0.315031 0.0633545 -61.7251 -1.2204 -0.0 0.0 0.0 -0.0 0.0 0.0 1.17483e-13 -8.02385e-12 -1.91401e-13 81.5602 28.0579 3.46236 -15.6451 -8.36166 28.9272 -0.00108751 -0.94164 -0.132351 -4.47689e-10 1.51925e-09 4.55124e-10 -7.67506e-10 2.62843e-09 7.86136e-10 -4.47685e-10 1.51925e-09 4.55114e-10 7.73091 5.47488 0.417314 -4.47688e-10 1.51925e-09 4.55124e-10 2.90554 0.965183 0.102902 -4.47681e-10 1.51925e-09 4.55125e-10 10.2786 0.731801 0.0259123 -4.4769e-10 1.51926e-09 4.5513e-10 2.22167 -0.733487 -0.20892 1.17432e-13 -8.02385e-12 -1.9164e-13 -80.9332 19.5958 5.99214 13.9238 -6.89314 -25.4007 0.622014 -21.823 3.22615 -1.93661e-09 -1.02473e-09 -2.09886e-09 -3.31276e-09 -1.79654e-09 -3.6585e-09 -1.93662e-09 -1.02473e-09 -2.09885e-09 -7.73091 5.47488 -0.417314 -1.93661e-09 -1.02473e-09 -2.09886e-09 -2.90554 0.965183 -0.102902 -1.93662e-09 -1.02473e-09 -2.09886e-09 -10.2786 0.731801 -0.0259123 -1.93661e-09 -1.02473e-09 -2.09886e-09 -2.22167 -0.733487 0.20892 -2.03217e-16 0.0 -3.88251e-19 -0.0806997 -38.8019 -2.52207 -0.270691 33.688 0.345172 0.241452 12.0052 -6.18481 2.03217e-16 0.0 3.88251e-19 7.94967 -41.4489 13.8221 0.616123 51.021 -1.07062 2.39887 19.9894 -6.77665
-1.1069999999999993 88.7205 -0.2126000000000019 -344.251 -85.5918 361.792 2.59998 27.7674 -3.78317 -3.02982 -5.37977 -1.18087 3.42098 22.4472 -0.347945 -0.0419519 -61.7243 -1.35105 -0.0 0.0 0.0 -0.0 0.0 0.0 8.85749e-14 -4.63339e-12 -1.11577e-13 81.5441 28.0068 3.49764 -15.6105 -8.33026 28.8546 -0.00104786 -0.924582 -0.129953 -5.08729e-11 4.68052e-10 -4.24039e-10 -8.63473e-11 8.09862e-10 -7.346e-10 -5.08697e-11 4.68052e-10 -4.24049e-10 7.73091 5.47488 0.417314 -5.08726e-11 4.68052e-10 -4.24039e-10 2.90554 0.965183 0.102902 -5.08676e-11 4.68053e-10 -4.24039e-10 10.2786 0.731801 0.0259123 -5.08732e-11 4.68055e-10 -4.24033e-10 2.22167 -0.733487 -0.20892 8.84983e-14 -4.63338e-12 -1.1186e-13 -80.9962 19.4958 6.20932 13.8379 -6.82439 -25.2284 0.60899 -21.6076 3.19101 -5.11828e-10 -5.28764e-10 -1.28734e-10 -8.78057e-10 -9.23437e-10 -2.30463e-10 -5.11834e-10 -5.28764e-10 -1.28728e-10 -7.73091 5.47488 -0.417314 -5.11827e-10 -5.28765e-10 -1.28734e-10 -2.90554 0.965183 -0.102902 -5.11835e-10 -5.28764e-10 -1.28734e-10 -10.2786 0.731801 -0.0259123 -5.11822e-10 -5.28762e-10 -1.28739e-10 -2.22167 -0.733487 0.20892 -2.03217e-16 0.0 -3.88251e-19 -0.0251653 -38.4523 -2.75288 -0.273585 33.8495 0.348565 0.218651 11.9394 -6.0532 2.03217e-16 0.0 3.88251e-19 8.16995 -42.5748 14.3997 0.619168 51.0557 -1.06136 2.2867 19.5657 -6.559
-1.6620000000000061 88.6805 -0.30859999999999843 -345.502 -85.5929 362.945 2.60567 27.8527 -3.67915 -3.04462 -5.35104 -1.15176 3.45872 22.439 -0.377289 -0.135827 -61.7145 -1.46669 -0.0 0.0 0.0 -0.0 0.0 0.0 4.95899e-14 -4.8259e-13 -1.74243e-14 81.5351 27.9577 3.52987 -15.5812 -8.30387 28.7935 -0.00100276 -0.904444 -0.127122 3.23247e-10 -6.38258e-10 -1.263e-09 5.55411e-10 -1.1041e-09 -2.18561e-09 3.23249e-10 -6.3826e-10 -1.26301e-09 7.73091 5.47488 0.417314 3.23246e-10 -6.38259e-10 -1.263e-09 2.90554 0.965183 0.102902 3.2325e-10 -6.38258e-10 -1.26301e-09 10.2786 0.731801 0.0259123 3.23246e-10 -6.38256e-10 -1.263e-09 2.22167 -0.733487 -0.20892 4.94888e-14 -4.82579e-13 -1.77454e-14 -81.0589 19.3995 6.43437 13.7486 -6.7533 -25.0495 0.595722 -21.3842 3.15471 9.3438e-10 1.70586e-11 1.8632e-09 1.59296e-09 3.6369e-11 3.23552e-09 9.34375e-10 1.70583e-11 1.8632e-09 -7.73091 5.47488 -0.417314 9.34382e-10 1.70583e-11 1.8632e-09 -2.90554 0.965183 -0.102902 9.34373e-10 1.70588e-11 1.8632e-09 -10.2786 0.731801 -0.0259123 9.34389e-10 1.70625e-11 1.8632e-09 -2.22167 -0.733487 0.20892 -2.03217e-16 0.0 -3.88251e-19 0.0363554 -38.0914 -2.97429 -0.276374 33.9981 0.351236 0.195276 11.8643 -5.91727 2.03217e-16 0.0 3.88251e-19 8.36822 -43.6781 14.9753 0.619259 51.0062 -1.04785 2.19188 19.2215 -6.36729
